<svg xmlns="http://www.w3.org/2000/svg" style="display:none">
  <!-- Icon definitions used throughout the site -->
  <symbol id="moon" viewBox="0 0 24 24">
    <path fill="currentColor" d="M12 2a9.99 9.99 0 0 0 0 20 10 10 0 0 0 6.4-17.8A8 8 0 1 1 12 2z"/>
  </symbol>
  <symbol id="mail" viewBox="0 0 24 24">
    <path fill="currentColor" d="M20 4H4a2 2 0 0 0-2 2v12a2 2 0 0 0 2 2h16a2 2 0 0 0 2-2V6a2 2 0 0 0-2-2Zm0 4-8 5L4 8V6l8 5 8-5v2Z"/>
  </symbol>
  <symbol id="check" viewBox="0 0 24 24">
    <path fill="currentColor" d="m9 16.2l-3.5-3.6L4 14.1l5 5 11-11-1.5-1.4z"/>
  </symbol>
  <symbol id="zap" viewBox="0 0 24 24">
    <path fill="currentColor" d="M13 2L3 14h7l-1 8 10-12h-7l1-8z"/>
  </symbol>
  <symbol id="book" viewBox="0 0 24 24">
    <path fill="currentColor" d="M4 4h12a4 4 0 0 1 4 4v12H8a4 4 0 0 1-4-4V4zm4 14h10V8a2 2 0 0 0-2-2H6v10a2 2 0 0 0 2 2z"/>
  </symbol>
</svg>